<svg width="15" height="15" viewBox="0 0 13 13" fill="none" xmlns="http://www.w3.org/2000/svg"><path d="M6.5 0.25C3.05 0.25 0.25 3.05 0.25 6.5C0.25 9.95 3.05 12.75 6.5 12.75C9.95 12.75 12.75 9.95 12.75 6.5C12.75 3.05 9.95 0.25 6.5 0.25ZM3.41875 10.425C3.6875 9.8625 5.325 9.3125 6.5 9.3125C7.675 9.3125 9.31875 9.8625 9.58125 10.425C8.73125 11.1 7.6625 11.5 6.5 11.5C5.3375 11.5 4.26875 11.1 3.41875 10.425ZM10.475 9.51875C9.58125 8.43125 7.4125 8.0625 6.5 8.0625C5.5875 8.0625 3.41875 8.43125 2.525 9.51875C1.8875 8.68125 1.5 7.6375 1.5 6.5C1.5 3.74375 3.74375 1.5 6.5 1.5C9.25625 1.5 11.5 3.74375 11.5 6.5C11.5 7.6375 11.1125 8.68125 10.475 9.51875ZM6.5 2.75C5.2875 2.75 4.3125 3.725 4.3125 4.9375C4.3125 6.15 5.2875 7.125 6.5 7.125C7.7125 7.125 8.6875 6.15 8.6875 4.9375C8.6875 3.725 7.7125 2.75 6.5 2.75ZM6.5 5.875C5.98125 5.875 5.5625 5.45625 5.5625 4.9375C5.5625 4.41875 5.98125 4 6.5 4C7.01875 4 7.4375 4.41875 7.4375 4.9375C7.4375 5.45625 7.01875 5.875 6.5 5.875Z" fill="#0C4192"></path></svg>